<svg xmlns="http://www.w3.org/2000/svg" width="512" height="512" viewBox="0 0 512 512">
  <defs>
    <linearGradient id="g" x1="0" x2="1" y1="0" y2="1">
      <stop offset="0%" stop-color="#6EE7F9"/>
      <stop offset="50%" stop-color="#A78BFA"/>
      <stop offset="100%" stop-color="#F0ABFC"/>
    </linearGradient>
    <filter id="shadow" x="-20%" y="-20%" width="140%" height="140%">
      <feOffset dx="0" dy="8"/>
      <feGaussianBlur stdDeviation="12" result="b"/>
      <feColorMatrix type="matrix" values="0 0 0 0 0   0 0 0 0 0   0 0 0 0 0   0 0 0 .25 0"/>
      <feBlend in="SourceGraphic" in2="b" mode="normal"/>
    </filter>
  </defs>
  <rect x="32" y="40" width="448" height="432" rx="72" fill="url(#g)" filter="url(#shadow)"/>
  <g transform="translate(128 140)">
    <path d="M0 64c0-8.837 7.163-16 16-16h120c8.837 0 16 7.163 16 16s-7.163 16-16 16H16c-8.837 0-16-7.163-16-16zm0 88c0-8.837 7.163-16 16-16h88c8.837 0 16 7.163 16 16s-7.163 16-16 16H16c-8.837 0-16-7.163-16-16z" fill="#ffffff" opacity="0.9"/>
    <path d="M188 32l34 34 66-66c6.248-6.248 16.379-6.248 22.627 0s6.248 16.379 0 22.627l-77.313 77.313c-6.248 6.248-16.379 6.248-22.627 0L165.373 78.627c-6.248-6.248-6.248-16.379 0-22.627 6.248-6.248 16.379-6.248 22.627 0z" fill="#ffffff"/>
  </g>
</svg>